<?xml version="1.0" standalone="no"?>
<!DOCTYPE svg PUBLIC "-//W3C//DTD SVG 20010904//EN"
 "http://www.w3.org/TR/2001/REC-SVG-20010904/DTD/svg10.dtd">
<svg version="1.0" xmlns="http://www.w3.org/2000/svg"
 width="2084.000000pt" height="2084.000000pt" viewBox="0 0 2084.000000 2084.000000"
 preserveAspectRatio="xMidYMid meet">
<metadata>
Created by potrace 1.11, written by Peter Selinger 2001-2013
</metadata>
<g transform="translate(0.000000,2084.000000) scale(0.100000,-0.100000)"
fill="#000000" stroke="none">
<path d="M11697 18924 c-1 -1 -69 -5 -152 -9 -82 -3 -172 -8 -200 -11 -27 -2
-77 -6 -110 -9 -33 -3 -83 -7 -111 -10 -48 -4 -110 -11 -179 -20 -16 -2 -52
-7 -80 -10 -27 -3 -63 -8 -80 -10 -16 -3 -48 -7 -70 -10 -62 -10 -95 -15 -155
-25 -30 -5 -71 -12 -90 -15 -19 -3 -55 -10 -80 -15 -25 -5 -57 -12 -72 -15
-102 -19 -302 -63 -411 -91 -56 -14 -109 -28 -117 -30 -46 -11 -90 -24 -133
-37 -26 -8 -49 -15 -50 -15 -7 0 -100 -27 -152 -44 -33 -11 -67 -22 -75 -23
-94 -22 -618 -219 -792 -299 -31 -14 -59 -26 -62 -26 -33 0 -799 -394 -847
-436 -8 -8 -18 -14 -21 -14 -10 0 -232 -137 -363 -224 -646 -426 -1297 -998
-1761 -1545 -16 -19 -45 -53 -65 -75 -20 -23 -75 -90 -124 -151 -48 -60 -95
-119 -104 -130 -99 -121 -383 -529 -488 -700 -252 -411 -436 -761 -589 -1117
-19 -45 -41 -96 -49 -112 -17 -38 -116 -287 -119 -301 -2 -5 -9 -23 -15 -40
-7 -16 -14 -37 -16 -45 -2 -8 -22 -67 -45 -130 -35 -101 -105 -318 -115 -360
-2 -8 -16 -55 -30 -105 -14 -49 -27 -97 -29 -105 -2 -8 -16 -60 -29 -115 -36
-141 -78 -327 -97 -430 -5 -27 -12 -61 -15 -75 -3 -14 -7 -38 -10 -55 -3 -16
-7 -43 -10 -60 -3 -16 -8 -46 -11 -65 -3 -19 -9 -60 -14 -90 -5 -30 -11 -71
-14 -90 -2 -19 -7 -55 -11 -80 -12 -86 -15 -115 -20 -170 -3 -30 -8 -71 -10
-90 -11 -87 -23 -238 -32 -415 -15 -266 -8 -954 11 -1110 2 -16 7 -68 11 -115
3 -47 8 -98 10 -115 2 -16 6 -55 10 -85 3 -30 7 -68 10 -85 2 -16 7 -48 9 -70
15 -126 51 -352 66 -425 6 -25 21 -103 36 -175 14 -71 32 -157 41 -190 8 -33
17 -71 20 -85 2 -14 11 -50 19 -80 16 -61 18 -68 32 -125 44 -183 206 -679
281 -862 10 -26 34 -84 51 -128 98 -242 239 -549 317 -688 18 -31 32 -60 32
-62 1 -12 227 -413 273 -483 10 -15 21 -34 25 -42 8 -18 195 -304 220 -339 10
-13 25 -34 33 -46 8 -13 34 -49 57 -81 23 -33 56 -78 73 -102 17 -24 35 -49
40 -55 6 -7 54 -68 107 -137 53 -69 102 -130 107 -136 6 -7 27 -31 46 -55 287
-355 761 -829 1155 -1155 100 -83 385 -302 462 -354 11 -8 77 -54 145 -101
795 -551 1756 -986 2708 -1225 382 -96 855 -180 1175 -210 28 -2 66 -6 85 -9
34 -4 118 -11 245 -20 314 -23 860 -23 1175 0 146 11 218 17 245 20 17 2 57 7
90 10 91 9 206 24 350 45 143 22 142 22 300 51 61 12 121 23 135 26 62 11 218
47 365 84 1094 274 2113 759 3020 1439 222 167 292 222 298 236 8 17 -72 294
-137 474 -85 240 -155 402 -268 633 -439 890 -1123 1663 -1965 2220 -192 127
-165 124 -275 30 -573 -492 -1282 -824 -2033 -952 -33 -6 -72 -12 -86 -15 -15
-2 -53 -8 -85 -11 -33 -4 -68 -9 -78 -11 -146 -26 -703 -25 -946 2 -133 15
-413 66 -558 103 -299 75 -536 163 -827 307 -345 169 -608 343 -900 592 -113
97 -382 363 -446 442 -20 25 -53 65 -73 90 -92 112 -144 183 -227 305 -131
194 -259 420 -340 601 -20 44 -43 96 -52 115 -134 299 -257 755 -302 1124 -4
28 -8 60 -10 71 -26 164 -26 708 0 914 1 14 6 50 9 80 4 30 9 66 11 80 3 14 7
39 9 55 105 665 373 1302 775 1845 257 346 610 699 901 900 19 13 37 27 40 31
10 13 297 197 385 246 240 134 482 242 735 327 167 56 425 126 520 141 14 2
63 10 110 18 136 24 265 40 430 53 171 14 560 7 705 -11 17 -2 57 -6 90 -10
33 -3 74 -8 90 -10 17 -3 41 -7 55 -9 679 -108 1308 -370 1860 -775 68 -49
217 -167 230 -181 3 -3 37 -33 76 -67 l71 -63 42 30 c22 17 43 30 45 30 9 0
101 64 104 72 2 4 8 8 13 8 9 0 141 93 224 157 17 13 35 27 40 31 261 193 659
571 870 826 22 27 48 58 58 70 35 39 201 257 245 319 401 570 673 1152 862
1840 l21 78 -23 21 c-67 59 -192 157 -338 265 -200 149 -566 391 -750 496
-170 97 -289 162 -425 232 -142 73 -212 106 -450 215 -56 25 -357 147 -470
190 -176 66 -604 203 -735 235 -8 2 -96 24 -195 48 -99 25 -194 47 -210 50
-17 3 -88 17 -160 32 -71 15 -141 28 -155 30 -28 4 -68 11 -155 26 -33 6 -73
13 -90 15 -16 2 -52 6 -80 10 -27 4 -54 8 -60 9 -5 0 -39 4 -75 8 -144 18
-206 24 -310 32 -41 3 -95 8 -120 10 -135 13 -872 29 -883 19z"/>
<path d="M11827 13035 c-1 -2 -40 -5 -87 -9 -47 -4 -96 -8 -110 -11 -14 -2
-41 -7 -60 -9 -90 -13 -193 -35 -290 -63 -47 -14 -92 -26 -100 -28 -121 -27
-427 -169 -600 -277 -222 -140 -468 -353 -606 -524 -21 -27 -41 -51 -44 -54
-46 -42 -213 -296 -283 -432 -58 -112 -147 -319 -164 -383 -1 -5 -16 -57 -33
-115 -17 -58 -33 -118 -36 -135 -3 -16 -9 -48 -14 -70 -10 -44 -24 -136 -36
-230 -10 -80 -11 -451 -1 -545 53 -501 248 -976 562 -1370 178 -224 419 -438
659 -587 157 -97 471 -245 571 -268 6 -1 17 -5 25 -8 23 -9 240 -65 280 -72
31 -5 65 -10 195 -30 149 -22 482 -22 629 0 17 3 49 7 71 10 66 10 87 13 165
30 83 17 285 73 309 85 9 4 54 22 101 40 590 225 1099 692 1386 1270 100 202
194 474 220 636 3 21 8 42 10 46 3 4 7 29 9 55 3 26 7 57 9 68 32 143 27 603
-9 790 -30 156 -40 203 -65 290 -27 93 -64 198 -106 305 -36 90 -146 294 -217
403 -221 337 -479 587 -852 823 -65 41 -240 130 -332 168 -185 77 -448 151
-610 171 -13 2 -40 6 -60 9 -87 13 -167 19 -321 20 -89 2 -163 2 -165 1z m323
-1549 c14 -4 37 -8 52 -11 15 -3 40 -10 55 -16 15 -6 28 -9 28 -8 0 7 90 -29
158 -62 312 -154 541 -457 593 -783 3 -21 7 -48 10 -60 2 -11 4 -70 4 -131 1
-152 -29 -298 -86 -423 -13 -29 -24 -54 -24 -57 0 -14 -83 -141 -131 -200
-262 -324 -690 -468 -1099 -369 -305 74 -568 288 -713 579 -143 286 -143 643
-2 943 68 144 229 331 362 420 127 86 284 150 429 176 77 13 309 15 364 2z"/>
</g>
</svg>
